
<svg width="100" height="100" xmlns="http://www.w3.org/2000/svg">
  <defs>
    <pattern id="topo-pattern" width="100" height="100" patternUnits="userSpaceOnUse">
      <!-- Contour lines -->
      <path d="M10,30 Q25,10 40,30 T70,30" fill="none" stroke="#3E2723" stroke-width="0.5" stroke-opacity="0.2"/>
      <path d="M20,50 Q35,30 50,50 T80,50" fill="none" stroke="#3E2723" stroke-width="0.5" stroke-opacity="0.2"/>
      <path d="M30,70 Q45,50 60,70 T90,70" fill="none" stroke="#3E2723" stroke-width="0.5" stroke-opacity="0.2"/>
      
      <!-- Small dots representing rocks -->
      <circle cx="15" cy="15" r="0.8" fill="#5D4037" fill-opacity="0.3"/>
      <circle cx="45" cy="25" r="0.8" fill="#5D4037" fill-opacity="0.3"/>
      <circle cx="75" cy="35" r="0.8" fill="#5D4037" fill-opacity="0.3"/>
      <circle cx="25" cy="65" r="0.8" fill="#5D4037" fill-opacity="0.3"/>
      <circle cx="55" cy="75" r="0.8" fill="#5D4037" fill-opacity="0.3"/>
      <circle cx="85" cy="45" r="0.8" fill="#5D4037" fill-opacity="0.3"/>
      
      <!-- Tiny symbols representing vegetation -->
      <path d="M30,20 L32,18 L34,20" fill="none" stroke="#2D5B2D" stroke-width="0.3" stroke-opacity="0.3"/>
      <path d="M60,40 L62,38 L64,40" fill="none" stroke="#2D5B2D" stroke-width="0.3" stroke-opacity="0.3"/>
      <path d="M80,60 L82,58 L84,60" fill="none" stroke="#2D5B2D" stroke-width="0.3" stroke-opacity="0.3"/>
      <path d="M40,80 L42,78 L44,80" fill="none" stroke="#2D5B2D" stroke-width="0.3" stroke-opacity="0.3"/>
    </pattern>
  </defs>
  <rect width="100%" height="100%" fill="url(#topo-pattern)" />
</svg>
