<?xml version="1.0" encoding="UTF-8"?>
<svg version="1.1" id="Layer_1" xmlns="http://www.w3.org/2000/svg" xmlns:xlink="http://www.w3.org/1999/xlink" x="0px" y="0px"
	 width="100%" viewBox="0 0 1024 1024" enable-background="new 0 0 1024 1024" xml:space="preserve">
<path fill="#20333A" opacity="1.000000" stroke="none" 
	d="
M676.000000,1025.000000 
	C450.666656,1025.000000 225.833328,1025.000000 1.000000,1025.000000 
	C1.000000,683.666687 1.000000,342.333344 1.000000,1.000000 
	C342.333344,1.000000 683.666687,1.000000 1025.000000,1.000000 
	C1025.000000,342.333344 1025.000000,683.666687 1025.000000,1025.000000 
	C908.833313,1025.000000 792.666687,1025.000000 676.000000,1025.000000 
M603.432678,869.618530 
	C603.295471,877.428467 603.012329,885.241943 603.202759,893.043884 
	C603.227051,894.038147 605.718384,895.801697 607.076599,895.811157 
	C633.066284,895.992310 659.057617,895.926575 685.048157,896.029419 
	C688.075256,896.041382 689.161743,895.071411 689.092651,892.010864 
	C688.919922,884.350769 689.014099,876.684631 688.404114,868.434998 
	C687.596802,868.290710 686.789551,868.021118 685.982117,868.020386 
	C659.882751,867.997803 633.783447,867.987427 607.684143,868.043152 
	C606.453857,868.045776 605.224792,868.670654 603.432678,869.618530 
M433.400879,868.430542 
	C432.593109,868.288025 431.785461,868.021545 430.977631,868.020874 
	C404.216492,867.998413 377.455322,867.988220 350.694305,868.042908 
	C349.462982,868.045410 348.232941,868.665222 346.452362,869.621460 
	C346.321045,877.426147 346.043213,885.234497 346.239044,893.030945 
	C346.264282,894.034851 348.740723,895.816101 350.089905,895.824036 
	C376.730133,895.980469 403.371765,895.873108 430.012482,895.984131 
	C433.524994,895.998718 434.157867,894.516418 434.093292,891.488586 
	C433.933594,883.999146 434.015930,876.504456 433.400879,868.430542 
M825.978882,246.002594 
	C817.646423,245.998886 809.312012,246.096176 800.982483,245.938232 
	C797.948059,245.880707 796.824707,246.891449 796.941406,249.957092 
	C797.131531,254.949371 797.072998,259.955627 796.978699,264.953308 
	C796.727661,278.255798 796.401672,291.556915 795.511658,305.493164 
	C795.342773,309.128082 795.073364,312.761688 795.026855,316.398163 
	C794.942505,322.990692 794.997864,322.999054 788.601746,322.999512 
	C751.623291,323.002075 714.644775,322.985321 677.666382,323.045624 
	C675.776123,323.048706 673.886963,323.702850 671.621460,324.794830 
	C671.425781,326.592834 671.067627,328.390228 671.060547,330.188965 
	C671.011353,342.687225 671.037354,355.185760 671.034546,367.684204 
	C671.033081,374.404175 670.734314,374.436737 664.172913,375.054138 
	C654.936157,375.923309 645.718689,377.069641 636.529968,378.360565 
	C619.136658,380.804108 601.767700,383.421021 584.393616,386.000244 
	C581.218933,386.471527 579.361084,385.614929 578.009644,382.302734 
	C567.770630,357.207153 556.697327,332.433929 547.116150,307.094360 
	C540.663452,290.028778 531.437317,276.222168 514.964905,267.535889 
	C498.042236,258.612183 481.449585,249.063843 464.682892,239.842667 
	C454.397369,234.185959 443.350281,232.070160 431.616241,231.807327 
	C412.449280,231.378036 394.150055,236.644211 375.481537,239.416870 
	C348.760101,243.385559 322.115601,247.870468 295.427094,252.063950 
	C286.743347,253.428391 278.361481,255.508575 272.178741,262.300903 
	C261.678925,273.835938 251.106537,285.319855 241.012070,297.205231 
	C227.784439,312.779663 214.789093,328.562714 202.091736,344.571655 
	C195.195770,353.266113 188.490402,362.240356 182.861435,371.774628 
	C177.339951,381.126923 180.337799,392.749268 188.314957,398.599884 
	C196.584244,404.664795 210.505524,403.868134 217.790329,396.600952 
	C223.677811,390.727753 229.240631,384.528412 234.929367,378.456818 
	C254.608643,357.453278 274.172272,336.338989 294.096436,315.570465 
	C296.476440,313.089600 300.761749,311.309021 304.233063,311.188049 
	C324.856628,310.469482 345.500397,310.325470 366.138000,310.029694 
	C367.335999,310.012543 368.539185,310.356934 370.128387,310.590027 
	C369.155670,312.643799 368.486237,314.150085 367.740540,315.617645 
	C357.254700,336.254822 346.858765,356.938507 336.234680,377.504303 
	C326.914154,395.546692 317.304718,413.439575 307.879883,431.428345 
	C300.860870,444.825226 292.689056,457.786652 287.244781,471.802124 
	C278.224304,495.024017 270.745819,518.860291 263.057343,542.580261 
	C253.522629,571.996033 244.387222,601.541809 235.201874,631.069580 
	C233.621201,636.150879 230.534378,639.369934 225.549667,640.898010 
	C182.177841,654.193298 138.786942,667.426697 95.439178,680.799988 
	C78.638184,685.983276 70.703819,697.296753 70.959778,714.605225 
	C71.134712,726.434814 85.171272,744.063782 98.810898,742.018555 
	C107.149406,740.768188 115.558662,739.592468 123.696381,737.465759 
	C171.096024,725.078735 218.420776,712.405457 265.779602,699.862061 
	C279.601196,696.201294 289.860901,688.466492 295.967865,675.187500 
	C303.687347,658.402222 311.907806,641.847839 319.864899,625.171265 
	C324.733154,614.968323 329.413544,604.674805 334.356750,594.508789 
	C340.735565,581.390320 347.292755,568.358643 353.981049,554.870300 
	C356.818359,556.880127 359.579926,558.669739 362.160126,560.690857 
	C380.077332,574.725647 397.935883,588.835205 415.855164,602.867310 
	C429.851868,613.827820 443.903381,624.718384 457.944397,635.622253 
	C460.433014,637.554810 461.207092,639.323181 459.815765,642.773499 
	C450.364349,666.211609 441.420593,689.854065 432.030823,713.317688 
	C420.849701,741.257629 409.414978,769.096313 398.028076,796.953552 
	C394.408478,805.808655 390.929321,814.606873 394.751862,824.344360 
	C399.542969,836.549316 410.941742,844.797668 423.386353,844.984192 
	C436.880554,845.186401 447.949463,837.730896 453.434296,825.073425 
	C459.716522,810.575928 466.157654,796.146667 472.607117,781.722351 
	C482.584686,759.407288 492.511902,737.068542 502.677338,714.838989 
	C512.010254,694.429810 520.824219,673.722107 531.371582,653.948547 
	C540.229553,637.341980 541.235229,619.625671 526.579407,604.085571 
	C505.238220,581.456909 484.282135,558.465088 463.154633,535.634705 
	C454.568817,526.356934 445.970947,517.090271 437.362091,507.833923 
	C435.498230,505.829926 434.845123,504.024719 436.392822,501.223083 
	C455.058685,467.434204 473.574646,433.562469 492.147156,399.721954 
	C496.763428,391.310791 501.442261,382.933960 506.346344,374.082886 
	C508.410675,377.880585 510.228882,381.200500 512.024292,384.532684 
	C520.231018,399.764038 528.127625,415.173065 536.732788,430.175781 
	C543.286987,441.602844 553.529297,447.147217 566.778259,444.321075 
	C594.677551,438.369781 622.679871,432.900024 650.653687,427.301147 
	C657.203125,425.990326 663.807251,424.952332 671.001526,423.679993 
	C671.001526,426.511261 671.000671,428.312714 671.001709,430.114136 
	C671.033447,485.107208 671.054382,540.100281 671.134827,595.093323 
	C671.138184,597.374329 671.697205,599.654602 672.581299,602.541077 
	C673.887268,602.694031 675.193237,602.980225 676.499268,602.980530 
	C716.627869,602.990845 756.756409,602.973083 796.949158,603.900024 
	C796.955994,690.543396 796.936768,777.186890 797.050720,863.830078 
	C797.056091,867.932983 795.968384,869.243774 791.760010,869.193665 
	C773.434143,868.975525 755.103455,869.185791 736.776489,869.018555 
	C733.097717,868.985046 731.721252,869.974854 731.928162,873.790039 
	C732.225464,879.272400 732.310730,884.805664 731.907898,890.274597 
	C731.562805,894.960083 733.219421,896.089478 737.768311,896.080139 
	C808.582397,895.934998 879.396729,895.970276 950.211060,895.961853 
	C951.377075,895.961670 952.598999,896.143311 953.690369,895.850525 
	C954.484924,895.637451 955.722778,894.771301 955.713562,894.213562 
	C955.574951,885.803894 955.262268,877.397095 954.386108,868.418884 
	C952.409119,868.279236 950.432190,868.019043 948.455139,868.017822 
	C910.302795,867.993774 872.149963,867.915466 833.998596,868.106079 
	C829.188049,868.130127 827.889282,866.791931 827.897339,861.992188 
	C828.038879,777.690735 828.036011,693.388916 827.901062,609.087463 
	C827.893555,604.395691 828.997437,602.861511 833.918030,602.887451 
	C872.069275,603.088074 910.222107,603.014282 948.374390,602.955322 
	C950.269043,602.952393 952.162659,602.298828 954.560364,601.305115 
	C954.668030,581.509949 954.847778,561.714844 954.842712,541.919678 
	C954.841003,535.347046 954.159058,528.774475 954.163025,522.202087 
	C954.166992,515.628784 954.903748,509.053894 954.856384,502.483032 
	C954.726135,484.398926 954.288940,466.317200 954.124084,448.233154 
	C954.084961,443.935608 954.871582,439.633087 954.879700,435.332153 
	C954.945801,400.204132 954.931885,365.075928 954.878418,329.947876 
	C954.875427,328.008911 954.306030,326.070770 953.440674,323.494019 
	C951.471680,323.329346 949.502808,323.022522 947.533691,323.021057 
	C909.723511,322.992859 871.912903,322.921967 834.103577,323.101135 
	C829.430603,323.123260 827.825623,322.044037 827.885620,317.097748 
	C828.150269,295.280945 828.026855,273.459045 827.952454,251.639313 
	C827.946045,249.757416 827.269409,247.877823 825.978882,246.002594 
M523.167358,249.550308 
	C535.053467,250.932236 546.581665,249.754578 558.069458,246.085678 
	C580.941284,238.780975 604.762634,204.893982 601.238037,177.216812 
	C598.535706,155.996063 589.200745,139.183411 572.171021,126.524063 
	C559.720154,117.268478 545.508179,114.387444 530.245728,114.873375 
	C513.328125,115.412010 498.613892,121.379501 486.648926,133.054092 
	C470.082855,149.218140 463.982880,169.182800 466.868622,192.161972 
	C470.645752,222.239120 492.637299,245.094025 523.167358,249.550308 
M147.500000,869.016357 
	C123.698425,868.994385 99.896393,869.039734 76.095726,868.881592 
	C72.308311,868.856445 70.712296,869.748352 70.947838,873.875427 
	C71.288673,879.847168 71.117455,885.857178 70.951561,891.844971 
	C70.871063,894.750366 71.677231,896.000183 74.849716,895.992004 
	C106.973396,895.909485 139.097504,895.915405 171.221130,896.011292 
	C174.418045,896.020813 175.171463,894.715576 175.104416,891.842041 
	C174.960800,885.686890 174.870438,879.518127 175.130371,873.370605 
	C175.284729,869.720154 173.815552,868.847778 170.469131,868.939331 
	C163.150803,869.139465 155.823593,869.013977 147.500000,869.016357 
M303.981659,875.603333 
	C303.963104,868.955078 303.963104,868.954895 297.182892,868.956848 
	C295.019562,868.957458 292.856232,868.961670 290.692902,868.961243 
	C268.394043,868.956421 246.095123,868.931702 223.796371,868.979736 
	C221.852402,868.983948 219.118774,868.036133 218.962143,871.561218 
	C218.652924,878.520752 218.403214,885.483276 218.050888,892.440552 
	C217.921570,894.994446 218.914658,895.971252 221.521667,895.965149 
	C247.814316,895.903748 274.107300,895.889893 300.399841,895.973022 
	C303.393280,895.982544 304.051422,894.694031 303.989868,892.056030 
	C303.869537,886.900391 303.971130,881.739502 303.981659,875.603333 
M478.881073,895.869995 
	C504.512421,895.899719 530.143982,895.882996 555.774780,896.017090 
	C559.025879,896.034058 560.189392,895.030884 560.063904,891.742432 
	C559.848328,886.091675 559.742004,880.410217 560.092346,874.772949 
	C560.369995,870.304749 559.111145,868.786865 554.359802,868.838867 
	C531.393799,869.090271 508.423309,868.906189 485.454651,868.966125 
	C475.683960,868.991638 477.059174,867.712952 477.095093,877.480530 
	C477.117371,883.533386 477.676880,889.584290 478.881073,895.869995 
z"/>
<path fill="#00080A" opacity="1.000000" stroke="none" 
	d="
M671.997314,601.935181 
	C671.697205,599.654602 671.138184,597.374329 671.134827,595.093323 
	C671.054382,540.100281 671.033447,485.107208 671.001709,430.114136 
	C671.000671,428.312714 671.001526,426.511261 671.001526,423.679993 
	C663.807251,424.952332 657.203125,425.990326 650.653687,427.301147 
	C622.679871,432.900024 594.677551,438.369781 566.778259,444.321075 
	C553.529297,447.147217 543.286987,441.602844 536.732788,430.175781 
	C528.127625,415.173065 520.231018,399.764038 512.024292,384.532684 
	C510.228882,381.200500 508.410675,377.880585 506.346344,374.082886 
	C501.442261,382.933960 496.763428,391.310791 492.147156,399.721954 
	C473.574646,433.562469 455.058685,467.434204 436.392822,501.223083 
	C434.845123,504.024719 435.498230,505.829926 437.362091,507.833923 
	C445.970947,517.090271 454.568817,526.356934 463.154633,535.634705 
	C484.282135,558.465088 505.238220,581.456909 526.579407,604.085571 
	C541.235229,619.625671 540.229553,637.341980 531.371582,653.948547 
	C520.824219,673.722107 512.010254,694.429810 502.677338,714.838989 
	C492.511902,737.068542 482.584686,759.407288 472.607117,781.722351 
	C466.157654,796.146667 459.716522,810.575928 453.434296,825.073425 
	C447.949463,837.730896 436.880554,845.186401 423.386353,844.984192 
	C410.941742,844.797668 399.542969,836.549316 394.751862,824.344360 
	C390.929321,814.606873 394.408478,805.808655 398.028076,796.953552 
	C409.414978,769.096313 420.849701,741.257629 432.030823,713.317688 
	C441.420593,689.854065 450.364349,666.211609 459.815765,642.773499 
	C461.207092,639.323181 460.433014,637.554810 457.944397,635.622253 
	C443.903381,624.718384 429.851868,613.827820 415.855164,602.867310 
	C397.935883,588.835205 380.077332,574.725647 362.160126,560.690857 
	C359.579926,558.669739 356.818359,556.880127 353.981049,554.870300 
	C347.292755,568.358643 340.735565,581.390320 334.356750,594.508789 
	C329.413544,604.674805 324.733154,614.968323 319.864899,625.171265 
	C311.907806,641.847839 303.687347,658.402222 295.967865,675.187500 
	C289.860901,688.466492 279.601196,696.201294 265.779602,699.862061 
	C218.420776,712.405457 171.096024,725.078735 123.696381,737.465759 
	C115.558662,739.592468 107.149406,740.768188 98.810898,742.018555 
	C85.171272,744.063782 71.134712,726.434814 70.959778,714.605225 
	C70.703819,697.296753 78.638184,685.983276 95.439178,680.799988 
	C138.786942,667.426697 182.177841,654.193298 225.549667,640.898010 
	C230.534378,639.369934 233.621201,636.150879 235.201874,631.069580 
	C244.387222,601.541809 253.522629,571.996033 263.057343,542.580261 
	C270.745819,518.860291 278.224304,495.024017 287.244781,471.802124 
	C292.689056,457.786652 300.860870,444.825226 307.879883,431.428345 
	C317.304718,413.439575 326.914154,395.546692 336.234680,377.504303 
	C346.858765,356.938507 357.254700,336.254822 367.740540,315.617645 
	C368.486237,314.150085 369.155670,312.643799 370.128387,310.590027 
	C368.539185,310.356934 367.335999,310.012543 366.138000,310.029694 
	C345.500397,310.325470 324.856628,310.469482 304.233063,311.188049 
	C300.761749,311.309021 296.476440,313.089600 294.096436,315.570465 
	C274.172272,336.338989 254.608643,357.453278 234.929367,378.456818 
	C229.240631,384.528412 223.677811,390.727753 217.790329,396.600952 
	C210.505524,403.868134 196.584244,404.664795 188.314957,398.599884 
	C180.337799,392.749268 177.339951,381.126923 182.861435,371.774628 
	C188.490402,362.240356 195.195770,353.266113 202.091736,344.571655 
	C214.789093,328.562714 227.784439,312.779663 241.012070,297.205231 
	C251.106537,285.319855 261.678925,273.835938 272.178741,262.300903 
	C278.361481,255.508575 286.743347,253.428391 295.427094,252.063950 
	C322.115601,247.870468 348.760101,243.385559 375.481537,239.416870 
	C394.150055,236.644211 412.449280,231.378036 431.616241,231.807327 
	C443.350281,232.070160 454.397369,234.185959 464.682892,239.842667 
	C481.449585,249.063843 498.042236,258.612183 514.964905,267.535889 
	C531.437317,276.222168 540.663452,290.028778 547.116150,307.094360 
	C556.697327,332.433929 567.770630,357.207153 578.009644,382.302734 
	C579.361084,385.614929 581.218933,386.471527 584.393616,386.000244 
	C601.767700,383.421021 619.136658,380.804108 636.529968,378.360565 
	C645.718689,377.069641 654.936157,375.923309 664.172913,375.054138 
	C670.734314,374.436737 671.033081,374.404175 671.034546,367.684204 
	C671.037354,355.185760 671.011353,342.687225 671.060547,330.188965 
	C671.067627,328.390228 671.425781,326.592834 672.278442,324.431152 
	C691.166809,324.074341 709.398193,324.084808 727.629517,324.087158 
	C748.733154,324.089844 769.837708,323.980713 790.939575,324.173035 
	C795.121582,324.211182 796.508301,322.940857 796.211853,318.810944 
	C795.879578,314.181488 796.116333,309.511108 796.105469,304.858551 
	C796.401672,291.556915 796.727661,278.255798 796.978699,264.953308 
	C797.072998,259.955627 797.131531,254.949371 796.941406,249.957092 
	C796.824707,246.891449 797.948059,245.880707 800.982483,245.938232 
	C809.312012,246.096176 817.646423,245.998886 826.465454,246.468857 
	C826.951965,272.495758 826.951965,298.056396 826.951965,324.132263 
	C869.837280,324.132263 911.918823,324.132263 954.000366,324.132263 
	C954.306030,326.070770 954.875427,328.008911 954.878418,329.947876 
	C954.931885,365.075928 954.945801,400.204132 954.879700,435.332153 
	C954.871582,439.633087 954.084961,443.935608 954.124084,448.233154 
	C954.288940,466.317200 954.726135,484.398926 954.856384,502.483032 
	C954.903748,509.053894 954.166992,515.628784 954.163025,522.202087 
	C954.159058,528.774475 954.841003,535.347046 954.842712,541.919678 
	C954.847778,561.714844 954.668030,581.509949 953.833191,601.618164 
	C911.200134,601.931213 869.294189,601.931213 827.310181,601.931213 
	C827.310181,691.356140 827.310181,779.917664 827.310181,868.989624 
	C870.104797,868.989624 912.547668,868.989624 954.990479,868.989624 
	C955.262268,877.397095 955.574951,885.803894 955.713562,894.213562 
	C955.722778,894.771301 954.484924,895.637451 953.690369,895.850525 
	C952.598999,896.143311 951.377075,895.961670 950.211060,895.961853 
	C879.396729,895.970276 808.582397,895.934998 737.768311,896.080139 
	C733.219421,896.089478 731.562805,894.960083 731.907898,890.274597 
	C732.310730,884.805664 732.225464,879.272400 731.928162,873.790039 
	C731.721252,869.974854 733.097717,868.985046 736.776489,869.018555 
	C755.103455,869.185791 773.434143,868.975525 791.760010,869.193665 
	C795.968384,869.243774 797.056091,867.932983 797.050720,863.830078 
	C796.936768,777.186890 796.955994,690.543396 796.661865,603.106689 
	C794.896118,602.184937 793.417725,601.945190 791.939209,601.944519 
	C751.958557,601.926453 711.977966,601.932861 671.997314,601.935181 
M697.713989,579.994995 
	C770.004578,579.993958 842.295166,580.000488 914.585754,579.976929 
	C920.068054,579.975159 925.550293,579.760193 931.785645,579.422668 
	C932.204224,577.603394 932.984436,575.784790 932.988098,573.964600 
	C933.065857,535.856140 933.060120,497.747437 933.061768,459.638794 
	C933.063416,423.527130 933.055847,387.415436 933.048401,351.303772 
	C933.047729,348.218628 933.530396,344.605957 927.331055,346.438446 
	C924.342957,346.293671 921.354858,346.023499 918.366699,346.022461 
	C845.253113,345.997345 772.139465,346.045746 699.026123,345.902649 
	C693.905701,345.892609 692.924927,347.952606 692.942444,352.456970 
	C693.076965,386.931427 693.034058,421.406586 693.038574,455.881531 
	C693.043762,495.352844 693.039551,534.824158 693.044678,574.295471 
	C693.045044,576.915222 692.392090,579.984802 696.659729,580.007568 
	C696.659729,580.007568 696.754333,579.923706 697.713989,579.994995 
z"/>
<path fill="#00080A" opacity="1.000000" stroke="none" 
	d="
M522.746826,249.411942 
	C492.637299,245.094025 470.645752,222.239120 466.868622,192.161972 
	C463.982880,169.182800 470.082855,149.218140 486.648926,133.054092 
	C498.613892,121.379501 513.328125,115.412010 530.245728,114.873375 
	C545.508179,114.387444 559.720154,117.268478 572.171021,126.524063 
	C589.200745,139.183411 598.535706,155.996063 601.238037,177.216812 
	C604.762634,204.893982 580.941284,238.780975 558.069458,246.085678 
	C546.581665,249.754578 535.053467,250.932236 522.746826,249.411942 
z"/>
<path fill="#000809" opacity="1.000000" stroke="none" 
	d="
M148.000000,869.018921 
	C155.823593,869.013977 163.150803,869.139465 170.469131,868.939331 
	C173.815552,868.847778 175.284729,869.720154 175.130371,873.370605 
	C174.870438,879.518127 174.960800,885.686890 175.104416,891.842041 
	C175.171463,894.715576 174.418045,896.020813 171.221130,896.011292 
	C139.097504,895.915405 106.973396,895.909485 74.849716,895.992004 
	C71.677231,896.000183 70.871063,894.750366 70.951561,891.844971 
	C71.117455,885.857178 71.288673,879.847168 70.947838,873.875427 
	C70.712296,869.748352 72.308311,868.856445 76.095726,868.881592 
	C99.896393,869.039734 123.698425,868.994385 148.000000,869.018921 
z"/>
<path fill="#00080A" opacity="1.000000" stroke="none" 
	d="
M434.001007,869.011902 
	C434.015930,876.504456 433.933594,883.999146 434.093292,891.488586 
	C434.157867,894.516418 433.524994,895.998718 430.012482,895.984131 
	C403.371765,895.873108 376.730133,895.980469 350.089905,895.824036 
	C348.740723,895.816101 346.264282,894.034851 346.239044,893.030945 
	C346.043213,885.234497 346.321045,877.426147 347.195618,869.322632 
	C376.626221,869.019836 405.313629,869.015869 434.001007,869.011902 
z"/>
<path fill="#00080A" opacity="1.000000" stroke="none" 
	d="
M689.001160,869.020935 
	C689.014099,876.684631 688.919922,884.350769 689.092651,892.010864 
	C689.161743,895.071411 688.075256,896.041382 685.048157,896.029419 
	C659.057617,895.926575 633.066284,895.992310 607.076599,895.811157 
	C605.718384,895.801697 603.227051,894.038147 603.202759,893.043884 
	C603.012329,885.241943 603.295471,877.428467 604.183044,869.324585 
	C632.955994,869.027344 660.978577,869.024170 689.001160,869.020935 
z"/>
<path fill="#00080A" opacity="1.000000" stroke="none" 
	d="
M303.981232,876.092041 
	C303.971130,881.739502 303.869537,886.900391 303.989868,892.056030 
	C304.051422,894.694031 303.393280,895.982544 300.399841,895.973022 
	C274.107300,895.889893 247.814316,895.903748 221.521667,895.965149 
	C218.914658,895.971252 217.921570,894.994446 218.050888,892.440552 
	C218.403214,885.483276 218.652924,878.520752 218.962143,871.561218 
	C219.118774,868.036133 221.852402,868.983948 223.796371,868.979736 
	C246.095123,868.931702 268.394043,868.956421 290.692902,868.961243 
	C292.856232,868.961670 295.019562,868.957458 297.182892,868.956848 
	C303.963104,868.954895 303.963104,868.955078 303.981232,876.092041 
z"/>
<path fill="#000809" opacity="1.000000" stroke="none" 
	d="
M478.438171,895.753052 
	C477.676880,889.584290 477.117371,883.533386 477.095093,877.480530 
	C477.059174,867.712952 475.683960,868.991638 485.454651,868.966125 
	C508.423309,868.906189 531.393799,869.090271 554.359802,868.838867 
	C559.111145,868.786865 560.369995,870.304749 560.092346,874.772949 
	C559.742004,880.410217 559.848328,886.091675 560.063904,891.742432 
	C560.189392,895.030884 559.025879,896.034058 555.774780,896.017090 
	C530.143982,895.882996 504.512421,895.899719 478.438171,895.753052 
z"/>
<path fill="#293F49" opacity="1.000000" stroke="none" 
	d="
M954.688293,868.704224 
	C912.547668,868.989624 870.104797,868.989624 827.310181,868.989624 
	C827.310181,779.917664 827.310181,691.356140 827.310181,601.931213 
	C869.294189,601.931213 911.200134,601.931213 953.581421,601.939697 
	C952.162659,602.298828 950.269043,602.952393 948.374390,602.955322 
	C910.222107,603.014282 872.069275,603.088074 833.918030,602.887451 
	C828.997437,602.861511 827.893555,604.395691 827.901062,609.087463 
	C828.036011,693.388916 828.038879,777.690735 827.897339,861.992188 
	C827.889282,866.791931 829.188049,868.130127 833.998596,868.106079 
	C872.149963,867.915466 910.302795,867.993774 948.455139,868.017822 
	C950.432190,868.019043 952.409119,868.279236 954.688293,868.704224 
z"/>
<path fill="#293F49" opacity="1.000000" stroke="none" 
	d="
M953.720520,323.813141 
	C911.918823,324.132263 869.837280,324.132263 826.951965,324.132263 
	C826.951965,298.056396 826.951965,272.495758 826.928101,246.466125 
	C827.269409,247.877823 827.946045,249.757416 827.952454,251.639313 
	C828.026855,273.459045 828.150269,295.280945 827.885620,317.097748 
	C827.825623,322.044037 829.430603,323.123260 834.103577,323.101135 
	C871.912903,322.921967 909.723511,322.992859 947.533691,323.021057 
	C949.502808,323.022522 951.471680,323.329346 953.720520,323.813141 
z"/>
<path fill="#293F49" opacity="1.000000" stroke="none" 
	d="
M795.808594,305.175842 
	C796.116333,309.511108 795.879578,314.181488 796.211853,318.810944 
	C796.508301,322.940857 795.121582,324.211182 790.939575,324.173035 
	C769.837708,323.980713 748.733154,324.089844 727.629517,324.087158 
	C709.398193,324.084808 691.166809,324.074341 672.466370,324.060669 
	C673.886963,323.702850 675.776123,323.048706 677.666382,323.045624 
	C714.644775,322.985321 751.623291,323.002075 788.601746,322.999512 
	C794.997864,322.999054 794.942505,322.990692 795.026855,316.398163 
	C795.073364,312.761688 795.342773,309.128082 795.808594,305.175842 
z"/>
<path fill="#293F49" opacity="1.000000" stroke="none" 
	d="
M672.289307,602.238159 
	C711.977966,601.932861 751.958557,601.926453 791.939209,601.944519 
	C793.417725,601.945190 794.896118,602.184937 796.629761,602.636475 
	C756.756409,602.973083 716.627869,602.990845 676.499268,602.980530 
	C675.193237,602.980225 673.887268,602.694031 672.289307,602.238159 
z"/>
<path fill="#293F49" opacity="1.000000" stroke="none" 
	d="
M433.700928,868.721191 
	C405.313629,869.015869 376.626221,869.019836 347.470581,869.010681 
	C348.232941,868.665222 349.462982,868.045410 350.694305,868.042908 
	C377.455322,867.988220 404.216492,867.998413 430.977631,868.020874 
	C431.785461,868.021545 432.593109,868.288025 433.700928,868.721191 
z"/>
<path fill="#293F49" opacity="1.000000" stroke="none" 
	d="
M688.702637,868.727966 
	C660.978577,869.024170 632.955994,869.027344 604.464294,869.018188 
	C605.224792,868.670654 606.453857,868.045776 607.684143,868.043152 
	C633.783447,867.987427 659.882751,867.997803 685.982117,868.020386 
	C686.789551,868.021118 687.596802,868.290710 688.702637,868.727966 
z"/>
<path fill="#F7F8F5" opacity="1.000000" stroke="none" 
	d="
M696.641235,579.882507 
	C692.392090,579.984802 693.045044,576.915222 693.044678,574.295471 
	C693.039551,534.824158 693.043762,495.352844 693.038574,455.881531 
	C693.034058,421.406586 693.076965,386.931427 692.942444,352.456970 
	C692.924927,347.952606 693.905701,345.892609 699.026123,345.902649 
	C772.139465,346.045746 845.253113,345.997345 918.366699,346.022461 
	C921.354858,346.023499 924.342957,346.293671 927.822388,346.730774 
	C928.485596,347.313873 928.657410,347.604614 928.509033,348.002563 
	C918.792725,357.074493 909.396606,366.039276 899.759399,375.198517 
	C898.929626,376.224609 898.340942,377.056244 897.829590,377.894775 
	C897.906921,377.901703 897.887878,377.747589 897.601135,377.823761 
	C897.130554,378.236145 896.946716,378.572357 896.842346,378.911713 
	C896.921753,378.914856 896.899963,378.757385 896.615112,378.836609 
	C896.141907,379.246643 895.953552,379.577484 895.843506,379.911346 
	C895.921936,379.914368 895.899780,379.759033 895.616089,379.839355 
	C895.145142,380.251495 894.957825,380.583374 894.842468,380.943359 
	C894.914429,380.971527 894.956055,380.822662 894.639648,380.890686 
	C894.043640,381.284332 893.764099,381.609985 893.205322,382.079590 
	C883.943542,391.116943 874.960999,400.010376 865.736328,409.013855 
	C865.290527,409.407837 865.086914,409.691711 864.582520,410.111145 
	C854.169861,420.424194 844.057922,430.601715 833.695679,440.910950 
	C833.232422,441.347595 833.019409,441.652496 832.511108,442.092834 
	C830.132385,444.619781 828.048950,447.011200 825.667725,449.572571 
	C825.200317,450.153870 825.030701,450.565186 824.926270,450.953094 
	C824.991455,450.929657 824.936462,450.802490 824.652100,450.883911 
	C824.148254,451.287537 823.928711,451.609680 823.441467,452.038269 
	C822.426697,453.002350 821.679565,453.860016 820.678955,454.862915 
	C820.197876,455.319519 819.970459,455.630859 819.448914,456.080994 
	C816.076904,459.376648 812.999084,462.533478 809.664490,465.833252 
	C809.213257,466.303894 809.018738,466.631531 808.897339,466.947205 
	C808.970520,466.935272 808.932129,466.792084 808.654297,466.882019 
	C808.174500,467.284088 807.972534,467.596222 807.849365,467.907440 
	C807.928101,467.906525 807.898376,467.751831 807.609436,467.827789 
	C807.130493,468.233398 806.940430,468.563080 806.838684,468.889282 
	C806.926941,468.885834 806.889282,468.713196 806.595093,468.762024 
	C805.882507,469.212982 805.464050,469.615112 805.022278,470.008118 
	C804.998962,469.998993 805.017334,470.045654 804.757446,470.189331 
	C804.221130,470.829559 803.944641,471.326111 803.747620,471.842743 
	C803.827148,471.862823 803.814636,471.699310 803.509827,471.741028 
	C803.040405,472.131134 802.875732,472.479523 802.782654,472.831177 
	C802.854187,472.834412 802.808472,472.698700 802.502991,472.736694 
	C802.034485,473.124573 801.871460,473.474487 801.778687,473.831238 
	C801.848938,473.838074 801.809326,473.702606 801.505310,473.741364 
	C801.037781,474.133209 800.874268,474.486298 800.786621,474.844727 
	C800.862488,474.850098 800.824219,474.702789 800.522278,474.750854 
	C800.051636,475.145599 799.882996,475.492279 799.788452,475.844116 
	C799.862488,475.849243 799.823792,475.705963 799.522278,475.752930 
	C799.052185,476.148499 798.883606,476.497101 798.791748,476.850525 
	C798.868408,476.855377 798.831177,476.706238 798.530396,476.757263 
	C798.058655,477.153259 797.887756,477.498169 797.791382,477.848389 
	C797.865906,477.853699 797.828552,477.708984 797.528320,477.758820 
	C797.058594,478.157501 796.889160,478.506348 796.797852,478.860474 
	C796.875916,478.865784 796.842346,478.712799 796.543579,478.768341 
	C796.070984,479.168121 795.897095,479.512329 795.799683,479.862854 
	C795.876160,479.869171 795.845093,479.718781 795.548401,479.776245 
	C795.078308,480.181000 794.904846,480.528259 794.812378,480.880280 
	C794.893372,480.885040 794.864929,480.725281 794.570679,480.790283 
	C794.095642,481.193268 793.914856,481.531250 793.813110,481.869202 
	C793.892151,481.869171 793.851868,481.716339 793.555969,481.778290 
	C793.082886,482.179901 792.905762,482.519531 792.805725,482.860229 
	C792.882874,482.861267 792.842041,482.712433 792.543579,482.768402 
	C792.070618,483.165405 791.896057,483.506439 791.796570,483.850403 
	C791.871643,483.853333 791.831116,483.708618 791.531250,483.759827 
	C791.060181,484.155853 790.888977,484.500671 790.793213,484.850098 
	C790.868713,484.854675 790.830933,484.708282 790.530701,484.759186 
	C790.059570,485.155273 789.888611,485.500458 789.793579,485.849365 
	C789.869446,485.853088 789.829834,485.706482 789.529053,485.756836 
	C789.057678,486.151886 788.887146,486.496613 788.791748,486.843170 
	C788.866943,486.845001 788.822327,486.701416 788.519592,486.748535 
	C788.049133,487.140442 787.881409,487.485168 787.785034,487.832520 
	C787.856506,487.835144 787.810059,487.699921 787.505798,487.740051 
	C787.037598,488.129181 786.873657,488.478149 786.781311,488.831848 
	C786.852844,488.836517 786.809875,488.699707 786.505310,488.739380 
	C786.036987,489.128235 785.873230,489.477417 785.781494,489.828918 
	C785.853455,489.831268 785.805664,489.695343 785.499146,489.734070 
	C785.031738,490.120209 784.870789,490.467621 784.776855,490.815552 
	C784.843872,490.816071 784.789734,490.693420 784.479187,490.721649 
	C784.014648,491.101440 783.860657,491.453003 783.780090,491.777466 
	C783.853577,491.750366 783.755432,491.628265 783.455261,491.648041 
	C782.755432,492.108032 782.355774,492.548218 781.652893,493.124084 
	C763.541748,511.076813 745.733948,528.893799 727.673706,546.853027 
	C727.226135,547.319519 727.031006,547.643799 726.903442,547.970215 
	C726.970947,547.972412 726.965637,547.837402 726.696472,547.937012 
	C726.200134,548.337952 725.972900,548.639282 725.464478,549.061768 
	C724.107788,550.395752 723.032288,551.608582 721.705811,552.942627 
	C721.241272,553.362122 721.027832,553.660339 720.515747,554.093750 
	C713.217285,561.258667 706.217590,568.288452 698.932861,575.533447 
	C697.027100,576.664551 694.087097,576.940125 696.641235,579.882507 
z"/>
<path fill="#EF7D31" opacity="1.000000" stroke="none" 
	d="
M931.032593,579.644348 
	C925.550293,579.760193 920.068054,579.975159 914.585754,579.976929 
	C842.295166,580.000488 770.004578,579.993958 697.287598,579.662598 
	C697.240845,578.887329 697.620422,578.444458 698.468628,578.002747 
	C776.298462,578.008240 853.659607,578.012512 931.020630,578.288086 
	C931.024597,578.921082 931.028564,579.282715 931.032593,579.644348 
z"/>
<path fill="#FE9636" opacity="1.000000" stroke="none" 
	d="
M931.409119,579.533508 
	C931.028564,579.282715 931.024597,578.921082 931.309082,577.985046 
	C931.735229,575.766663 931.993042,574.122681 931.993408,572.478699 
	C932.011414,499.551544 932.006714,426.624390 932.004150,353.697235 
	C932.004089,352.698303 932.364746,351.458771 931.906555,350.755157 
	C931.165100,349.616699 929.882996,348.830383 928.829224,347.895355 
	C928.657410,347.604614 928.485596,347.313873 928.356628,346.903870 
	C933.530396,344.605957 933.047729,348.218628 933.048401,351.303772 
	C933.055847,387.415436 933.063416,423.527130 933.061768,459.638794 
	C933.060120,497.747437 933.065857,535.856140 932.988098,573.964600 
	C932.984436,575.784790 932.204224,577.603394 931.409119,579.533508 
z"/>
<path fill="#DC6014" opacity="1.000000" stroke="none" 
	d="
M698.000000,578.001587 
	C697.620422,578.444458 697.240845,578.887329 696.807800,579.626953 
	C696.754333,579.923706 696.659729,580.007568 696.650513,579.945068 
	C694.087097,576.940125 697.027100,576.664551 698.808716,575.884888 
	C698.646423,576.681274 698.323242,577.341431 698.000000,578.001587 
z"/>
<path fill="#E0742E" opacity="1.000000" stroke="none" 
	d="
M698.468628,578.002747 
	C698.323242,577.341431 698.646423,576.681274 699.093750,575.669678 
	C706.217590,568.288452 713.217285,561.258667 720.771851,553.978516 
	C721.536682,553.425964 721.746765,553.123718 721.956848,552.821472 
	C723.032288,551.608582 724.107788,550.395752 725.733276,548.959595 
	C726.510742,548.436646 726.738159,548.137024 726.965637,547.837402 
	C726.965637,547.837402 726.970947,547.972412 727.167358,547.842529 
	C727.551270,547.378723 727.738708,547.044739 727.926086,546.710815 
	C745.733948,528.893799 763.541748,511.076813 781.972900,493.091553 
	C782.982605,492.491608 783.369019,492.059937 783.755432,491.628265 
	C783.755432,491.628265 783.853577,491.750366 784.070251,491.722595 
	C784.454529,491.361023 784.622131,491.027222 784.789673,490.693420 
	C784.789734,490.693420 784.843872,490.816071 785.066406,490.756134 
	C785.461182,490.362579 785.633423,490.028961 785.805664,489.695343 
	C785.805664,489.695343 785.853455,489.831268 786.070190,489.764801 
	C786.461182,489.365448 786.635498,489.032562 786.809814,488.699707 
	C786.809875,488.699707 786.852844,488.836517 787.069946,488.767578 
	C787.461365,488.365723 787.635681,488.032806 787.810059,487.699890 
	C787.810059,487.699921 787.856506,487.835144 788.073242,487.766785 
	C788.467407,487.366119 788.644836,487.033752 788.822266,486.701416 
	C788.822327,486.701416 788.866943,486.845001 789.078735,486.772888 
	C789.470276,486.369354 789.650024,486.037903 789.829834,485.706482 
	C789.829834,485.706482 789.869446,485.853088 790.080078,485.777618 
	C790.470825,485.370880 790.650879,485.039581 790.830933,484.708282 
	C790.830933,484.708282 790.868713,484.854675 791.079895,484.778656 
	C791.471069,484.371307 791.651123,484.039948 791.831116,483.708618 
	C791.831116,483.708618 791.871643,483.853333 792.082703,483.778320 
	C792.476562,483.373016 792.659302,483.042725 792.842041,482.712433 
	C792.842041,482.712433 792.882874,482.861267 793.090271,482.783325 
	C793.482361,482.375702 793.667114,482.046021 793.851868,481.716339 
	C793.851868,481.716339 793.892151,481.869171 794.095581,481.788086 
	C794.487610,481.379761 794.676270,481.052521 794.864929,480.725281 
	C794.864929,480.725281 794.893372,480.885040 795.094604,480.796509 
	C795.478943,480.378235 795.662048,480.048523 795.845093,479.718811 
	C795.845093,479.718781 795.876160,479.869171 796.084473,479.786194 
	C796.475952,479.373047 796.659119,479.042908 796.842285,478.712769 
	C796.842346,478.712799 796.875916,478.865784 797.083069,478.784424 
	C797.469666,478.371674 797.649109,478.040344 797.828552,477.708984 
	C797.828552,477.708984 797.865906,477.853699 798.078003,477.777039 
	C798.470459,477.368988 798.650818,477.037598 798.831177,476.706238 
	C798.831177,476.706238 798.868408,476.855377 799.078369,476.778442 
	C799.466797,476.369629 799.645325,476.037811 799.823792,475.705963 
	C799.823792,475.705963 799.862488,475.849243 800.075928,475.774536 
	C800.467651,475.367493 800.645935,475.035156 800.824219,474.702820 
	C800.824219,474.702789 800.862488,474.850098 801.073853,474.775146 
	C801.459900,474.367645 801.634583,474.035126 801.809326,473.702576 
	C801.809326,473.702606 801.848938,473.838074 802.067505,473.767700 
	C802.460205,473.364471 802.634338,473.031586 802.808472,472.698700 
	C802.808472,472.698700 802.854187,472.834412 803.070923,472.765839 
	C803.463318,472.364624 803.638977,472.031952 803.814575,471.699280 
	C803.814636,471.699310 803.827148,471.862823 804.052246,471.769501 
	C804.524048,471.132690 804.770691,470.589172 805.017334,470.045654 
	C805.017334,470.045654 804.998962,469.998993 805.328247,469.960205 
	C806.068176,469.518646 806.478699,469.115906 806.889282,468.713196 
	C806.889282,468.713196 806.926941,468.885834 807.115967,468.799438 
	C807.502808,468.392609 807.700562,468.072235 807.898376,467.751831 
	C807.898376,467.751831 807.928101,467.906525 808.122375,467.816437 
	C808.521851,467.414948 808.726990,467.103516 808.932129,466.792084 
	C808.932129,466.792084 808.970520,466.935272 809.164490,466.819763 
	C809.546021,466.366241 809.733582,466.028259 809.921204,465.690308 
	C812.999084,462.533478 816.076904,459.376648 819.723083,455.961243 
	C820.505066,455.374329 820.718750,455.045959 820.932495,454.717651 
	C821.679565,453.860016 822.426697,453.002350 823.718628,451.939148 
	C824.487854,451.423218 824.712158,451.112885 824.936523,450.802490 
	C824.936462,450.802490 824.991455,450.929657 825.205261,450.770813 
	C825.601196,450.208832 825.783325,449.805725 825.965454,449.402649 
	C828.048950,447.011200 830.132385,444.619781 832.770630,441.972717 
	C833.532227,441.404449 833.739136,441.091827 833.945984,440.779236 
	C844.057922,430.601715 854.169861,420.424194 864.818665,409.993042 
	C865.563110,409.460846 865.770752,409.182312 865.978394,408.903809 
	C874.960999,400.010376 883.943542,391.116943 893.517578,381.988068 
	C894.391357,381.442627 894.673706,381.132629 894.956055,380.822632 
	C894.956055,380.822662 894.914429,380.971527 895.116272,380.847168 
	C895.511963,380.401550 895.705872,380.080292 895.899780,379.759033 
	C895.899780,379.759033 895.921936,379.914368 896.118530,379.817596 
	C896.510071,379.399689 896.705017,379.078552 896.899963,378.757385 
	C896.899963,378.757385 896.921753,378.914856 897.117676,378.816833 
	C897.505066,378.395050 897.696472,378.071320 897.887878,377.747589 
	C897.887878,377.747589 897.906921,377.901703 898.159546,377.817200 
	C898.941650,376.823120 899.471069,375.913574 900.000488,375.004059 
	C909.396606,366.039276 918.792725,357.074493 928.509033,348.002563 
	C929.882996,348.830383 931.165100,349.616699 931.906555,350.755157 
	C932.364746,351.458771 932.004089,352.698303 932.004150,353.697235 
	C932.006714,426.624390 932.011414,499.551544 931.993408,572.478699 
	C931.993042,574.122681 931.735229,575.766663 931.309143,577.713745 
	C853.659607,578.012512 776.298462,578.008240 698.468628,578.002747 
z"/>
<path fill="#DC6014" opacity="1.000000" stroke="none" 
	d="
M899.759399,375.198517 
	C899.471069,375.913574 898.941650,376.823120 898.082214,377.810272 
	C898.340942,377.056244 898.929626,376.224609 899.759399,375.198517 
z"/>
<path fill="#DC6014" opacity="1.000000" stroke="none" 
	d="
M806.595093,468.762024 
	C806.478699,469.115906 806.068176,469.518646 805.351562,469.969299 
	C805.464050,469.615112 805.882507,469.212982 806.595093,468.762024 
z"/>
<path fill="#DC6014" opacity="1.000000" stroke="none" 
	d="
M783.455261,491.648041 
	C783.369019,492.059937 782.982605,492.491608 782.276184,492.955841 
	C782.355774,492.548218 782.755432,492.108032 783.455261,491.648041 
z"/>
<path fill="#DC6014" opacity="1.000000" stroke="none" 
	d="
M804.757446,470.189331 
	C804.770691,470.589172 804.524048,471.132690 803.972778,471.749420 
	C803.944641,471.326111 804.221130,470.829559 804.757446,470.189331 
z"/>
<path fill="#DC6014" opacity="1.000000" stroke="none" 
	d="
M721.705811,552.942627 
	C721.746765,553.123718 721.536682,553.425964 721.070496,553.843384 
	C721.027832,553.660339 721.241272,553.362122 721.705811,552.942627 
z"/>
<path fill="#DC6014" opacity="1.000000" stroke="none" 
	d="
M726.696472,547.937012 
	C726.738159,548.137024 726.510742,548.436646 726.014526,548.838440 
	C725.972900,548.639282 726.200134,548.337952 726.696472,547.937012 
z"/>
<path fill="#DC6014" opacity="1.000000" stroke="none" 
	d="
M727.673706,546.853027 
	C727.738708,547.044739 727.551270,547.378723 727.099854,547.840332 
	C727.031006,547.643799 727.226135,547.319519 727.673706,546.853027 
z"/>
<path fill="#DC6014" opacity="1.000000" stroke="none" 
	d="
M793.555969,481.778290 
	C793.667114,482.046021 793.482361,482.375702 793.013123,482.782288 
	C792.905762,482.519531 793.082886,482.179901 793.555969,481.778290 
z"/>
<path fill="#DC6014" opacity="1.000000" stroke="none" 
	d="
M784.479126,490.721619 
	C784.622131,491.027222 784.454529,491.361023 783.996765,491.749695 
	C783.860657,491.453003 784.014648,491.101440 784.479126,490.721619 
z"/>
<path fill="#DC6014" opacity="1.000000" stroke="none" 
	d="
M785.499146,489.734070 
	C785.633423,490.028961 785.461182,490.362579 784.999390,490.755615 
	C784.870789,490.467621 785.031738,490.120209 785.499146,489.734070 
z"/>
<path fill="#DC6014" opacity="1.000000" stroke="none" 
	d="
M786.505249,488.739380 
	C786.635498,489.032562 786.461182,489.365448 785.998169,489.762451 
	C785.873230,489.477417 786.036987,489.128235 786.505249,488.739380 
z"/>
<path fill="#DC6014" opacity="1.000000" stroke="none" 
	d="
M787.505737,487.740051 
	C787.635681,488.032806 787.461365,488.365723 786.998413,488.762878 
	C786.873657,488.478149 787.037598,488.129181 787.505737,487.740051 
z"/>
<path fill="#DC6014" opacity="1.000000" stroke="none" 
	d="
M788.519531,486.748535 
	C788.644836,487.033752 788.467407,487.366119 788.001770,487.764160 
	C787.881409,487.485168 788.049133,487.140442 788.519531,486.748535 
z"/>
<path fill="#DC6014" opacity="1.000000" stroke="none" 
	d="
M789.529053,485.756836 
	C789.650024,486.037903 789.470276,486.369354 789.003540,486.771057 
	C788.887146,486.496613 789.057678,486.151886 789.529053,485.756836 
z"/>
<path fill="#DC6014" opacity="1.000000" stroke="none" 
	d="
M790.530701,484.759186 
	C790.650879,485.039581 790.470825,485.370880 790.004150,485.773895 
	C789.888611,485.500458 790.059570,485.155273 790.530701,484.759186 
z"/>
<path fill="#DC6014" opacity="1.000000" stroke="none" 
	d="
M791.531250,483.759827 
	C791.651123,484.039948 791.471069,484.371307 791.004395,484.774048 
	C790.888977,484.500671 791.060181,484.155853 791.531250,483.759827 
z"/>
<path fill="#DC6014" opacity="1.000000" stroke="none" 
	d="
M803.509766,471.740997 
	C803.638977,472.031952 803.463318,472.364624 802.999390,472.762604 
	C802.875732,472.479523 803.040405,472.131134 803.509766,471.740997 
z"/>
<path fill="#DC6014" opacity="1.000000" stroke="none" 
	d="
M896.615112,378.836609 
	C896.705017,379.078552 896.510071,379.399689 896.040161,379.814575 
	C895.953552,379.577484 896.141907,379.246643 896.615112,378.836609 
z"/>
<path fill="#DC6014" opacity="1.000000" stroke="none" 
	d="
M895.616089,379.839355 
	C895.705872,380.080292 895.511963,380.401550 895.044312,380.819031 
	C894.957825,380.583374 895.145142,380.251495 895.616089,379.839355 
z"/>
<path fill="#DC6014" opacity="1.000000" stroke="none" 
	d="
M894.639648,380.890656 
	C894.673706,381.132629 894.391357,381.442627 893.796814,381.844116 
	C893.764099,381.609985 894.043640,381.284332 894.639648,380.890656 
z"/>
<path fill="#DC6014" opacity="1.000000" stroke="none" 
	d="
M865.736328,409.013855 
	C865.770752,409.182312 865.563110,409.460846 865.119385,409.857483 
	C865.086914,409.691711 865.290527,409.407837 865.736328,409.013855 
z"/>
<path fill="#DC6014" opacity="1.000000" stroke="none" 
	d="
M833.695679,440.910950 
	C833.739136,441.091827 833.532227,441.404449 833.065918,441.837219 
	C833.019409,441.652496 833.232422,441.347595 833.695679,440.910950 
z"/>
<path fill="#DC6014" opacity="1.000000" stroke="none" 
	d="
M825.667725,449.572571 
	C825.783325,449.805725 825.601196,450.208832 825.140076,450.794250 
	C825.030701,450.565186 825.200317,450.153870 825.667725,449.572571 
z"/>
<path fill="#DC6014" opacity="1.000000" stroke="none" 
	d="
M824.652161,450.883942 
	C824.712158,451.112885 824.487854,451.423218 823.986328,451.832703 
	C823.928711,451.609680 824.148254,451.287537 824.652161,450.883942 
z"/>
<path fill="#DC6014" opacity="1.000000" stroke="none" 
	d="
M820.678894,454.862915 
	C820.718750,455.045959 820.505066,455.374329 820.017212,455.822449 
	C819.970459,455.630859 820.197876,455.319519 820.678894,454.862915 
z"/>
<path fill="#DC6014" opacity="1.000000" stroke="none" 
	d="
M809.664490,465.833252 
	C809.733582,466.028259 809.546021,466.366241 809.091309,466.831696 
	C809.018738,466.631531 809.213257,466.303894 809.664490,465.833252 
z"/>
<path fill="#DC6014" opacity="1.000000" stroke="none" 
	d="
M808.654297,466.882019 
	C808.726990,467.103516 808.521851,467.414948 808.043579,467.817352 
	C807.972534,467.596222 808.174500,467.284088 808.654297,466.882019 
z"/>
<path fill="#DC6014" opacity="1.000000" stroke="none" 
	d="
M807.609436,467.827789 
	C807.700562,468.072235 807.502808,468.392609 807.027710,468.802856 
	C806.940430,468.563080 807.130493,468.233398 807.609436,467.827789 
z"/>
<path fill="#DC6014" opacity="1.000000" stroke="none" 
	d="
M792.543579,482.768402 
	C792.659302,483.042725 792.476562,483.373016 792.007629,483.775391 
	C791.896057,483.506439 792.070618,483.165405 792.543579,482.768402 
z"/>
<path fill="#DC6014" opacity="1.000000" stroke="none" 
	d="
M802.502991,472.736694 
	C802.634338,473.031586 802.460205,473.364471 801.997253,473.760864 
	C801.871460,473.474487 802.034485,473.124573 802.502991,472.736694 
z"/>
<path fill="#DC6014" opacity="1.000000" stroke="none" 
	d="
M801.505249,473.741333 
	C801.634583,474.035126 801.459900,474.367645 800.997925,474.769775 
	C800.874268,474.486298 801.037781,474.133209 801.505249,473.741333 
z"/>
<path fill="#DC6014" opacity="1.000000" stroke="none" 
	d="
M800.522217,474.750854 
	C800.645935,475.035156 800.467651,475.367493 800.001831,475.769409 
	C799.882996,475.492279 800.051636,475.145599 800.522217,474.750854 
z"/>
<path fill="#DC6014" opacity="1.000000" stroke="none" 
	d="
M799.522278,475.752930 
	C799.645325,476.037811 799.466797,476.369629 799.001709,476.773560 
	C798.883606,476.497101 799.052185,476.148499 799.522278,475.752930 
z"/>
<path fill="#DC6014" opacity="1.000000" stroke="none" 
	d="
M798.530396,476.757263 
	C798.650818,477.037598 798.470459,477.368988 798.003418,477.771729 
	C797.887756,477.498169 798.058655,477.153259 798.530396,476.757263 
z"/>
<path fill="#DC6014" opacity="1.000000" stroke="none" 
	d="
M797.528320,477.758820 
	C797.649109,478.040344 797.469666,478.371674 797.005005,478.779114 
	C796.889160,478.506348 797.058594,478.157501 797.528320,477.758820 
z"/>
<path fill="#DC6014" opacity="1.000000" stroke="none" 
	d="
M796.543579,478.768311 
	C796.659119,479.042908 796.475952,479.373047 796.007935,479.779846 
	C795.897095,479.512329 796.070984,479.168121 796.543579,478.768311 
z"/>
<path fill="#DC6014" opacity="1.000000" stroke="none" 
	d="
M795.548462,479.776276 
	C795.662048,480.048523 795.478943,480.378235 795.013672,480.791748 
	C794.904846,480.528259 795.078308,480.181000 795.548462,479.776276 
z"/>
<path fill="#DC6014" opacity="1.000000" stroke="none" 
	d="
M794.570679,480.790283 
	C794.676270,481.052521 794.487610,481.379761 794.016541,481.788116 
	C793.914856,481.531250 794.095642,481.193268 794.570679,480.790283 
z"/>
<path fill="#DC6014" opacity="1.000000" stroke="none" 
	d="
M897.601135,377.823761 
	C897.696472,378.071320 897.505066,378.395050 897.038330,378.813660 
	C896.946716,378.572357 897.130554,378.236145 897.601135,377.823761 
z"/>
</svg>